<?xml version="1.0" encoding="UTF-8" standalone="no"?>
<!DOCTYPE svg PUBLIC "-//W3C//DTD SVG 1.1//EN"
 "http://www.w3.org/Graphics/SVG/1.1/DTD/svg11.dtd">
<!-- Generated by graphviz version 2.43.0 (0)
 -->
<!-- Title: imports Pages: 1 -->
<svg width="900pt" height="727pt"
 viewBox="0.00 0.00 900.20 727.20" xmlns="http://www.w3.org/2000/svg" xmlns:xlink="http://www.w3.org/1999/xlink">
<g id="graph0" class="graph" transform="scale(1 1) rotate(0) translate(21.6 705.6)">
<title>imports</title>
<polygon fill="#f7f6f1" stroke="transparent" points="-21.6,21.6 -21.6,-705.6 878.6,-705.6 878.6,21.6 -21.6,21.6"/>
<!-- MagnitudeConjecture.MainResults -->
<g id="node1" class="node">
<title>MagnitudeConjecture.MainResults</title>
<path fill="white" stroke="#007d78" d="M196.5,-684C196.5,-684 133.5,-684 133.5,-684 127.5,-684 121.5,-678 121.5,-672 121.5,-672 121.5,-660 121.5,-660 121.5,-654 127.5,-648 133.5,-648 133.5,-648 196.5,-648 196.5,-648 202.5,-648 208.5,-654 208.5,-660 208.5,-660 208.5,-672 208.5,-672 208.5,-678 202.5,-684 196.5,-684"/>
<text text-anchor="middle" x="165" y="-662.9" font-family="sans-serif" font-size="12.00">MainResults</text>
</g>
<!-- MagnitudeConjecture.Algebra.StatementTheorem -->
<g id="node3" class="node">
<title>MagnitudeConjecture.Algebra.StatementTheorem</title>
<path fill="white" stroke="#007d78" d="M220,-612C220,-612 110,-612 110,-612 104,-612 98,-606 98,-600 98,-600 98,-588 98,-588 98,-582 104,-576 110,-576 110,-576 220,-576 220,-576 226,-576 232,-582 232,-588 232,-588 232,-600 232,-600 232,-606 226,-612 220,-612"/>
<text text-anchor="middle" x="165" y="-597.4" font-family="sans-serif" font-size="12.00">Algebra</text>
<text text-anchor="middle" x="165" y="-584.4" font-family="sans-serif" font-size="12.00">StatementTheorem</text>
</g>
<!-- MagnitudeConjecture.MainResults&#45;&gt;MagnitudeConjecture.Algebra.StatementTheorem -->
<g id="edge1" class="edge">
<title>MagnitudeConjecture.MainResults&#45;&gt;MagnitudeConjecture.Algebra.StatementTheorem</title>
<path fill="none" stroke="#53656d" d="M165,-647.7C165,-639.98 165,-630.71 165,-622.11"/>
<polygon fill="#53656d" stroke="#53656d" points="168.5,-622.1 165,-612.1 161.5,-622.1 168.5,-622.1"/>
</g>
<!-- MagnitudeConjecture.Statement -->
<g id="node2" class="node">
<title>MagnitudeConjecture.Statement</title>
<path fill="white" stroke="#007d78" d="M117,-468C117,-468 61,-468 61,-468 55,-468 49,-462 49,-456 49,-456 49,-444 49,-444 49,-438 55,-432 61,-432 61,-432 117,-432 117,-432 123,-432 129,-438 129,-444 129,-444 129,-456 129,-456 129,-462 123,-468 117,-468"/>
<text text-anchor="middle" x="89" y="-446.9" font-family="sans-serif" font-size="12.00">Statement</text>
</g>
<!-- MagnitudeConjecture.Algebra.StatementFiniteModules -->
<g id="node4" class="node">
<title>MagnitudeConjecture.Algebra.StatementFiniteModules</title>
<path fill="white" stroke="#007d78" d="M321.5,-540C321.5,-540 184.5,-540 184.5,-540 178.5,-540 172.5,-534 172.5,-528 172.5,-528 172.5,-516 172.5,-516 172.5,-510 178.5,-504 184.5,-504 184.5,-504 321.5,-504 321.5,-504 327.5,-504 333.5,-510 333.5,-516 333.5,-516 333.5,-528 333.5,-528 333.5,-534 327.5,-540 321.5,-540"/>
<text text-anchor="middle" x="253" y="-525.4" font-family="sans-serif" font-size="12.00">Algebra</text>
<text text-anchor="middle" x="253" y="-512.4" font-family="sans-serif" font-size="12.00">StatementFiniteModules</text>
</g>
<!-- MagnitudeConjecture.Algebra.StatementTheorem&#45;&gt;MagnitudeConjecture.Algebra.StatementFiniteModules -->
<g id="edge2" class="edge">
<title>MagnitudeConjecture.Algebra.StatementTheorem&#45;&gt;MagnitudeConjecture.Algebra.StatementFiniteModules</title>
<path fill="none" stroke="#53656d" d="M186.75,-575.7C197.84,-566.88 211.47,-556.03 223.49,-546.47"/>
<polygon fill="#53656d" stroke="#53656d" points="225.85,-549.07 231.5,-540.1 221.49,-543.59 225.85,-549.07"/>
</g>
<!-- MagnitudeConjecture.Algebra.StatementPresentation -->
<g id="node5" class="node">
<title>MagnitudeConjecture.Algebra.StatementPresentation</title>
<path fill="white" stroke="#007d78" d="M142,-540C142,-540 12,-540 12,-540 6,-540 0,-534 0,-528 0,-528 0,-516 0,-516 0,-510 6,-504 12,-504 12,-504 142,-504 142,-504 148,-504 154,-510 154,-516 154,-516 154,-528 154,-528 154,-534 148,-540 142,-540"/>
<text text-anchor="middle" x="77" y="-525.4" font-family="sans-serif" font-size="12.00">Algebra</text>
<text text-anchor="middle" x="77" y="-512.4" font-family="sans-serif" font-size="12.00">StatementPresentation</text>
</g>
<!-- MagnitudeConjecture.Algebra.StatementTheorem&#45;&gt;MagnitudeConjecture.Algebra.StatementPresentation -->
<g id="edge3" class="edge">
<title>MagnitudeConjecture.Algebra.StatementTheorem&#45;&gt;MagnitudeConjecture.Algebra.StatementPresentation</title>
<path fill="none" stroke="#53656d" d="M143.25,-575.7C132.16,-566.88 118.53,-556.03 106.51,-546.47"/>
<polygon fill="#53656d" stroke="#53656d" points="108.51,-543.59 98.5,-540.1 104.15,-549.07 108.51,-543.59"/>
</g>
<!-- MagnitudeConjecture.Algebra.StatementFiniteModules&#45;&gt;MagnitudeConjecture.Statement -->
<g id="edge4" class="edge">
<title>MagnitudeConjecture.Algebra.StatementFiniteModules&#45;&gt;MagnitudeConjecture.Statement</title>
<path fill="none" stroke="#53656d" d="M212.88,-503.88C190.36,-494.26 162.08,-482.19 138.23,-472.01"/>
<polygon fill="#53656d" stroke="#53656d" points="139.56,-468.77 128.99,-468.07 136.81,-475.21 139.56,-468.77"/>
</g>
<!-- MagnitudeConjecture.Algebra.RightModuleMagnitudePublic -->
<g id="node6" class="node">
<title>MagnitudeConjecture.Algebra.RightModuleMagnitudePublic</title>
<path fill="white" stroke="#007d78" d="M335,-468C335,-468 171,-468 171,-468 165,-468 159,-462 159,-456 159,-456 159,-444 159,-444 159,-438 165,-432 171,-432 171,-432 335,-432 335,-432 341,-432 347,-438 347,-444 347,-444 347,-456 347,-456 347,-462 341,-468 335,-468"/>
<text text-anchor="middle" x="253" y="-453.4" font-family="sans-serif" font-size="12.00">Algebra</text>
<text text-anchor="middle" x="253" y="-440.4" font-family="sans-serif" font-size="12.00">RightModuleMagnitudePublic</text>
</g>
<!-- MagnitudeConjecture.Algebra.StatementFiniteModules&#45;&gt;MagnitudeConjecture.Algebra.RightModuleMagnitudePublic -->
<g id="edge5" class="edge">
<title>MagnitudeConjecture.Algebra.StatementFiniteModules&#45;&gt;MagnitudeConjecture.Algebra.RightModuleMagnitudePublic</title>
<path fill="none" stroke="#53656d" d="M253,-503.7C253,-495.98 253,-486.71 253,-478.11"/>
<polygon fill="#53656d" stroke="#53656d" points="256.5,-478.1 253,-468.1 249.5,-478.1 256.5,-478.1"/>
</g>
<!-- MagnitudeConjecture.Algebra.StatementPresentation&#45;&gt;MagnitudeConjecture.Statement -->
<g id="edge6" class="edge">
<title>MagnitudeConjecture.Algebra.StatementPresentation&#45;&gt;MagnitudeConjecture.Statement</title>
<path fill="none" stroke="#53656d" d="M79.97,-503.7C81.29,-495.98 82.88,-486.71 84.35,-478.11"/>
<polygon fill="#53656d" stroke="#53656d" points="87.83,-478.55 86.07,-468.1 80.93,-477.37 87.83,-478.55"/>
</g>
<!-- MagnitudeConjecture.Algebra.RightModuleSimpleCount -->
<g id="node7" class="node">
<title>MagnitudeConjecture.Algebra.RightModuleSimpleCount</title>
<path fill="white" stroke="#007d78" d="M269.5,-324C269.5,-324 126.5,-324 126.5,-324 120.5,-324 114.5,-318 114.5,-312 114.5,-312 114.5,-300 114.5,-300 114.5,-294 120.5,-288 126.5,-288 126.5,-288 269.5,-288 269.5,-288 275.5,-288 281.5,-294 281.5,-300 281.5,-300 281.5,-312 281.5,-312 281.5,-318 275.5,-324 269.5,-324"/>
<text text-anchor="middle" x="198" y="-309.4" font-family="sans-serif" font-size="12.00">Algebra</text>
<text text-anchor="middle" x="198" y="-296.4" font-family="sans-serif" font-size="12.00">RightModuleSimpleCount</text>
</g>
<!-- MagnitudeConjecture.Algebra.RightModuleMagnitudePublic&#45;&gt;MagnitudeConjecture.Algebra.RightModuleSimpleCount -->
<g id="edge8" class="edge">
<title>MagnitudeConjecture.Algebra.RightModuleMagnitudePublic&#45;&gt;MagnitudeConjecture.Algebra.RightModuleSimpleCount</title>
<path fill="none" stroke="#53656d" d="M238.37,-431.93C230.61,-422.04 221.56,-409 216,-396 207.53,-376.23 202.98,-352.25 200.57,-334.16"/>
<polygon fill="#53656d" stroke="#53656d" points="204.02,-333.53 199.36,-324.01 197.07,-334.36 204.02,-333.53"/>
</g>
<!-- MagnitudeConjecture.Algebra.RightModuleIntervalProof -->
<g id="node8" class="node">
<title>MagnitudeConjecture.Algebra.RightModuleIntervalProof</title>
<path fill="white" stroke="#007d78" d="M380.5,-396C380.5,-396 237.5,-396 237.5,-396 231.5,-396 225.5,-390 225.5,-384 225.5,-384 225.5,-372 225.5,-372 225.5,-366 231.5,-360 237.5,-360 237.5,-360 380.5,-360 380.5,-360 386.5,-360 392.5,-366 392.5,-372 392.5,-372 392.5,-384 392.5,-384 392.5,-390 386.5,-396 380.5,-396"/>
<text text-anchor="middle" x="309" y="-381.4" font-family="sans-serif" font-size="12.00">Algebra</text>
<text text-anchor="middle" x="309" y="-368.4" font-family="sans-serif" font-size="12.00">RightModuleIntervalProof</text>
</g>
<!-- MagnitudeConjecture.Algebra.RightModuleMagnitudePublic&#45;&gt;MagnitudeConjecture.Algebra.RightModuleIntervalProof -->
<g id="edge7" class="edge">
<title>MagnitudeConjecture.Algebra.RightModuleMagnitudePublic&#45;&gt;MagnitudeConjecture.Algebra.RightModuleIntervalProof</title>
<path fill="none" stroke="#53656d" d="M266.84,-431.7C273.49,-423.39 281.58,-413.28 288.89,-404.14"/>
<polygon fill="#53656d" stroke="#53656d" points="291.8,-406.1 295.32,-396.1 286.34,-401.73 291.8,-406.1"/>
</g>
<!-- MagnitudeConjecture.Algebra.RightModuleIntervalProof&#45;&gt;MagnitudeConjecture.Algebra.RightModuleSimpleCount -->
<g id="edge11" class="edge">
<title>MagnitudeConjecture.Algebra.RightModuleIntervalProof&#45;&gt;MagnitudeConjecture.Algebra.RightModuleSimpleCount</title>
<path fill="none" stroke="#53656d" d="M281.85,-359.88C267.47,-350.81 249.62,-339.55 234.09,-329.76"/>
<polygon fill="#53656d" stroke="#53656d" points="235.58,-326.56 225.26,-324.19 231.85,-332.48 235.58,-326.56"/>
</g>
<!-- MagnitudeConjecture.Algebra.RightModuleMagnitudeSurplus -->
<g id="node9" class="node">
<title>MagnitudeConjecture.Algebra.RightModuleMagnitudeSurplus</title>
<path fill="white" stroke="#007d78" d="M499,-180C499,-180 325,-180 325,-180 319,-180 313,-174 313,-168 313,-168 313,-156 313,-156 313,-150 319,-144 325,-144 325,-144 499,-144 499,-144 505,-144 511,-150 511,-156 511,-156 511,-168 511,-168 511,-174 505,-180 499,-180"/>
<text text-anchor="middle" x="412" y="-165.4" font-family="sans-serif" font-size="12.00">Algebra</text>
<text text-anchor="middle" x="412" y="-152.4" font-family="sans-serif" font-size="12.00">RightModuleMagnitudeSurplus</text>
</g>
<!-- MagnitudeConjecture.Algebra.RightModuleIntervalProof&#45;&gt;MagnitudeConjecture.Algebra.RightModuleMagnitudeSurplus -->
<g id="edge9" class="edge">
<title>MagnitudeConjecture.Algebra.RightModuleIntervalProof&#45;&gt;MagnitudeConjecture.Algebra.RightModuleMagnitudeSurplus</title>
<path fill="none" stroke="#53656d" d="M306.51,-359.93C302.86,-328.71 299.32,-261.47 328,-216 336,-203.32 348.25,-193.14 360.95,-185.22"/>
<polygon fill="#53656d" stroke="#53656d" points="362.87,-188.15 369.76,-180.1 359.36,-182.1 362.87,-188.15"/>
</g>
<!-- MagnitudeConjecture.Algebra.RightModuleIntervalEquality -->
<g id="node11" class="node">
<title>MagnitudeConjecture.Algebra.RightModuleIntervalEquality</title>
<path fill="white" stroke="#007d78" d="M551,-324C551,-324 391,-324 391,-324 385,-324 379,-318 379,-312 379,-312 379,-300 379,-300 379,-294 385,-288 391,-288 391,-288 551,-288 551,-288 557,-288 563,-294 563,-300 563,-300 563,-312 563,-312 563,-318 557,-324 551,-324"/>
<text text-anchor="middle" x="471" y="-309.4" font-family="sans-serif" font-size="12.00">Algebra</text>
<text text-anchor="middle" x="471" y="-296.4" font-family="sans-serif" font-size="12.00">RightModuleIntervalEquality</text>
</g>
<!-- MagnitudeConjecture.Algebra.RightModuleIntervalProof&#45;&gt;MagnitudeConjecture.Algebra.RightModuleIntervalEquality -->
<g id="edge10" class="edge">
<title>MagnitudeConjecture.Algebra.RightModuleIntervalProof&#45;&gt;MagnitudeConjecture.Algebra.RightModuleIntervalEquality</title>
<path fill="none" stroke="#53656d" d="M348.63,-359.88C370.78,-350.31 398.56,-338.3 422.06,-328.15"/>
<polygon fill="#53656d" stroke="#53656d" points="423.71,-331.25 431.5,-324.07 420.93,-324.82 423.71,-331.25"/>
</g>
<!-- MagnitudeConjecture.Algebra.RightModuleIntervalInequality -->
<g id="node10" class="node">
<title>MagnitudeConjecture.Algebra.RightModuleIntervalInequality</title>
<path fill="white" stroke="#007d78" d="M609.5,-36C609.5,-36 438.5,-36 438.5,-36 432.5,-36 426.5,-30 426.5,-24 426.5,-24 426.5,-12 426.5,-12 426.5,-6 432.5,0 438.5,0 438.5,0 609.5,0 609.5,0 615.5,0 621.5,-6 621.5,-12 621.5,-12 621.5,-24 621.5,-24 621.5,-30 615.5,-36 609.5,-36"/>
<text text-anchor="middle" x="524" y="-21.4" font-family="sans-serif" font-size="12.00">Algebra</text>
<text text-anchor="middle" x="524" y="-8.4" font-family="sans-serif" font-size="12.00">RightModuleIntervalInequality</text>
</g>
<!-- MagnitudeConjecture.Algebra.RightModuleMagnitudeSurplus&#45;&gt;MagnitudeConjecture.Algebra.RightModuleIntervalInequality -->
<g id="edge12" class="edge">
<title>MagnitudeConjecture.Algebra.RightModuleMagnitudeSurplus&#45;&gt;MagnitudeConjecture.Algebra.RightModuleIntervalInequality</title>
<path fill="none" stroke="#53656d" d="M425.51,-143.87C445.1,-119.03 481.53,-72.85 504.17,-44.14"/>
<polygon fill="#53656d" stroke="#53656d" points="507,-46.21 510.44,-36.19 501.5,-41.87 507,-46.21"/>
</g>
<!-- MagnitudeConjecture.Algebra.RightModuleStandardIntervalBetaTransfer -->
<g id="node12" class="node">
<title>MagnitudeConjecture.Algebra.RightModuleStandardIntervalBetaTransfer</title>
<path fill="white" stroke="#007d78" d="M592.5,-252C592.5,-252 349.5,-252 349.5,-252 343.5,-252 337.5,-246 337.5,-240 337.5,-240 337.5,-228 337.5,-228 337.5,-222 343.5,-216 349.5,-216 349.5,-216 592.5,-216 592.5,-216 598.5,-216 604.5,-222 604.5,-228 604.5,-228 604.5,-240 604.5,-240 604.5,-246 598.5,-252 592.5,-252"/>
<text text-anchor="middle" x="471" y="-237.4" font-family="sans-serif" font-size="12.00">Algebra</text>
<text text-anchor="middle" x="471" y="-224.4" font-family="sans-serif" font-size="12.00">RightModuleStandardIntervalBetaTransfer</text>
</g>
<!-- MagnitudeConjecture.Algebra.RightModuleIntervalEquality&#45;&gt;MagnitudeConjecture.Algebra.RightModuleStandardIntervalBetaTransfer -->
<g id="edge13" class="edge">
<title>MagnitudeConjecture.Algebra.RightModuleIntervalEquality&#45;&gt;MagnitudeConjecture.Algebra.RightModuleStandardIntervalBetaTransfer</title>
<path fill="none" stroke="#53656d" d="M471,-287.7C471,-279.98 471,-270.71 471,-262.11"/>
<polygon fill="#53656d" stroke="#53656d" points="474.5,-262.1 471,-252.1 467.5,-262.1 474.5,-262.1"/>
</g>
<!-- MagnitudeConjecture.Algebra.RightModuleStandardIntervalBiserial -->
<g id="node13" class="node">
<title>MagnitudeConjecture.Algebra.RightModuleStandardIntervalBiserial</title>
<path fill="white" stroke="#007d78" d="M845,-252C845,-252 635,-252 635,-252 629,-252 623,-246 623,-240 623,-240 623,-228 623,-228 623,-222 629,-216 635,-216 635,-216 845,-216 845,-216 851,-216 857,-222 857,-228 857,-228 857,-240 857,-240 857,-246 851,-252 845,-252"/>
<text text-anchor="middle" x="740" y="-237.4" font-family="sans-serif" font-size="12.00">Algebra</text>
<text text-anchor="middle" x="740" y="-224.4" font-family="sans-serif" font-size="12.00">RightModuleStandardIntervalBiserial</text>
</g>
<!-- MagnitudeConjecture.Algebra.RightModuleIntervalEquality&#45;&gt;MagnitudeConjecture.Algebra.RightModuleStandardIntervalBiserial -->
<g id="edge14" class="edge">
<title>MagnitudeConjecture.Algebra.RightModuleIntervalEquality&#45;&gt;MagnitudeConjecture.Algebra.RightModuleStandardIntervalBiserial</title>
<path fill="none" stroke="#53656d" d="M536.46,-287.97C575.11,-277.91 624.19,-265.14 664.47,-254.65"/>
<polygon fill="#53656d" stroke="#53656d" points="665.45,-258.02 674.25,-252.11 663.69,-251.24 665.45,-258.02"/>
</g>
<!-- MagnitudeConjecture.Algebra.RightModuleStandardIntervalThin -->
<g id="node14" class="node">
<title>MagnitudeConjecture.Algebra.RightModuleStandardIntervalThin</title>
<path fill="white" stroke="#007d78" d="M784,-180C784,-180 592,-180 592,-180 586,-180 580,-174 580,-168 580,-168 580,-156 580,-156 580,-150 586,-144 592,-144 592,-144 784,-144 784,-144 790,-144 796,-150 796,-156 796,-156 796,-168 796,-168 796,-174 790,-180 784,-180"/>
<text text-anchor="middle" x="688" y="-165.4" font-family="sans-serif" font-size="12.00">Algebra</text>
<text text-anchor="middle" x="688" y="-152.4" font-family="sans-serif" font-size="12.00">RightModuleStandardIntervalThin</text>
</g>
<!-- MagnitudeConjecture.Algebra.RightModuleStandardIntervalBiserial&#45;&gt;MagnitudeConjecture.Algebra.RightModuleStandardIntervalThin -->
<g id="edge15" class="edge">
<title>MagnitudeConjecture.Algebra.RightModuleStandardIntervalBiserial&#45;&gt;MagnitudeConjecture.Algebra.RightModuleStandardIntervalThin</title>
<path fill="none" stroke="#53656d" d="M727.15,-215.7C720.97,-207.39 713.46,-197.28 706.68,-188.14"/>
<polygon fill="#53656d" stroke="#53656d" points="709.48,-186.04 700.71,-180.1 703.86,-190.22 709.48,-186.04"/>
</g>
<!-- MagnitudeConjecture.Algebra.RightModuleStandardIntervalPacking -->
<g id="node15" class="node">
<title>MagnitudeConjecture.Algebra.RightModuleStandardIntervalPacking</title>
<path fill="white" stroke="#007d78" d="M748,-108C748,-108 536,-108 536,-108 530,-108 524,-102 524,-96 524,-96 524,-84 524,-84 524,-78 530,-72 536,-72 536,-72 748,-72 748,-72 754,-72 760,-78 760,-84 760,-84 760,-96 760,-96 760,-102 754,-108 748,-108"/>
<text text-anchor="middle" x="642" y="-93.4" font-family="sans-serif" font-size="12.00">Algebra</text>
<text text-anchor="middle" x="642" y="-80.4" font-family="sans-serif" font-size="12.00">RightModuleStandardIntervalPacking</text>
</g>
<!-- MagnitudeConjecture.Algebra.RightModuleStandardIntervalThin&#45;&gt;MagnitudeConjecture.Algebra.RightModuleStandardIntervalPacking -->
<g id="edge16" class="edge">
<title>MagnitudeConjecture.Algebra.RightModuleStandardIntervalThin&#45;&gt;MagnitudeConjecture.Algebra.RightModuleStandardIntervalPacking</title>
<path fill="none" stroke="#53656d" d="M676.63,-143.7C671.28,-135.56 664.8,-125.69 658.89,-116.7"/>
<polygon fill="#53656d" stroke="#53656d" points="661.66,-114.54 653.24,-108.1 655.81,-118.38 661.66,-114.54"/>
</g>
<!-- MagnitudeConjecture.Algebra.RightModuleStandardIntervalPacking&#45;&gt;MagnitudeConjecture.Algebra.RightModuleIntervalInequality -->
<g id="edge17" class="edge">
<title>MagnitudeConjecture.Algebra.RightModuleStandardIntervalPacking&#45;&gt;MagnitudeConjecture.Algebra.RightModuleIntervalInequality</title>
<path fill="none" stroke="#53656d" d="M613.13,-71.88C597.71,-62.72 578.52,-51.34 561.9,-41.48"/>
<polygon fill="#53656d" stroke="#53656d" points="563.36,-38.28 552.98,-36.19 559.79,-44.3 563.36,-38.28"/>
</g>
</g>
</svg>
