<?xml version="1.0" encoding="UTF-8" standalone="no"?>
<!DOCTYPE svg PUBLIC "-//W3C//DTD SVG 1.1//EN"
 "http://www.w3.org/Graphics/SVG/1.1/DTD/svg11.dtd">
<!-- Generated by graphviz version 2.43.0 (0)
 -->
<!-- Title: imports Pages: 1 -->
<svg width="859pt" height="367pt"
 viewBox="0.00 0.00 859.20 367.20" xmlns="http://www.w3.org/2000/svg" xmlns:xlink="http://www.w3.org/1999/xlink">
<g id="graph0" class="graph" transform="scale(1 1) rotate(0) translate(21.6 345.6)">
<title>imports</title>
<polygon fill="#f7f6f1" stroke="transparent" points="-21.6,21.6 -21.6,-345.6 837.6,-345.6 837.6,21.6 -21.6,21.6"/>
<!-- MagnitudeConjecture.MainResults -->
<g id="node1" class="node">
<title>MagnitudeConjecture.MainResults</title>
<path fill="white" stroke="#007d78" d="M436,-324C436,-324 373,-324 373,-324 367,-324 361,-318 361,-312 361,-312 361,-300 361,-300 361,-294 367,-288 373,-288 373,-288 436,-288 436,-288 442,-288 448,-294 448,-300 448,-300 448,-312 448,-312 448,-318 442,-324 436,-324"/>
<text text-anchor="middle" x="404.5" y="-302.9" font-family="sans-serif" font-size="12.00">MainResults</text>
</g>
<!-- MagnitudeConjecture.Algebra.StatementTheorem -->
<g id="node3" class="node">
<title>MagnitudeConjecture.Algebra.StatementTheorem</title>
<path fill="white" stroke="#007d78" d="M459.5,-252C459.5,-252 349.5,-252 349.5,-252 343.5,-252 337.5,-246 337.5,-240 337.5,-240 337.5,-228 337.5,-228 337.5,-222 343.5,-216 349.5,-216 349.5,-216 459.5,-216 459.5,-216 465.5,-216 471.5,-222 471.5,-228 471.5,-228 471.5,-240 471.5,-240 471.5,-246 465.5,-252 459.5,-252"/>
<text text-anchor="middle" x="404.5" y="-237.4" font-family="sans-serif" font-size="12.00">Algebra</text>
<text text-anchor="middle" x="404.5" y="-224.4" font-family="sans-serif" font-size="12.00">StatementTheorem</text>
</g>
<!-- MagnitudeConjecture.MainResults&#45;&gt;MagnitudeConjecture.Algebra.StatementTheorem -->
<g id="edge1" class="edge">
<title>MagnitudeConjecture.MainResults&#45;&gt;MagnitudeConjecture.Algebra.StatementTheorem</title>
<path fill="none" stroke="#53656d" d="M404.5,-287.7C404.5,-279.98 404.5,-270.71 404.5,-262.11"/>
<polygon fill="#53656d" stroke="#53656d" points="408,-262.1 404.5,-252.1 401,-262.1 408,-262.1"/>
</g>
<!-- MagnitudeConjecture.Statement -->
<g id="node2" class="node">
<title>MagnitudeConjecture.Statement</title>
<path fill="white" stroke="#007d78" d="M377.5,-108C377.5,-108 321.5,-108 321.5,-108 315.5,-108 309.5,-102 309.5,-96 309.5,-96 309.5,-84 309.5,-84 309.5,-78 315.5,-72 321.5,-72 321.5,-72 377.5,-72 377.5,-72 383.5,-72 389.5,-78 389.5,-84 389.5,-84 389.5,-96 389.5,-96 389.5,-102 383.5,-108 377.5,-108"/>
<text text-anchor="middle" x="349.5" y="-86.9" font-family="sans-serif" font-size="12.00">Statement</text>
</g>
<!-- MagnitudeConjecture.Algebra.StatementFiniteModules -->
<g id="node4" class="node">
<title>MagnitudeConjecture.Algebra.StatementFiniteModules</title>
<path fill="white" stroke="#007d78" d="M385,-180C385,-180 248,-180 248,-180 242,-180 236,-174 236,-168 236,-168 236,-156 236,-156 236,-150 242,-144 248,-144 248,-144 385,-144 385,-144 391,-144 397,-150 397,-156 397,-156 397,-168 397,-168 397,-174 391,-180 385,-180"/>
<text text-anchor="middle" x="316.5" y="-165.4" font-family="sans-serif" font-size="12.00">Algebra</text>
<text text-anchor="middle" x="316.5" y="-152.4" font-family="sans-serif" font-size="12.00">StatementFiniteModules</text>
</g>
<!-- MagnitudeConjecture.Algebra.StatementTheorem&#45;&gt;MagnitudeConjecture.Algebra.StatementFiniteModules -->
<g id="edge2" class="edge">
<title>MagnitudeConjecture.Algebra.StatementTheorem&#45;&gt;MagnitudeConjecture.Algebra.StatementFiniteModules</title>
<path fill="none" stroke="#53656d" d="M382.75,-215.7C371.66,-206.88 358.03,-196.03 346.01,-186.47"/>
<polygon fill="#53656d" stroke="#53656d" points="348.01,-183.59 338,-180.1 343.65,-189.07 348.01,-183.59"/>
</g>
<!-- MagnitudeConjecture.Algebra.StatementPresentation -->
<g id="node5" class="node">
<title>MagnitudeConjecture.Algebra.StatementPresentation</title>
<path fill="white" stroke="#007d78" d="M557.5,-180C557.5,-180 427.5,-180 427.5,-180 421.5,-180 415.5,-174 415.5,-168 415.5,-168 415.5,-156 415.5,-156 415.5,-150 421.5,-144 427.5,-144 427.5,-144 557.5,-144 557.5,-144 563.5,-144 569.5,-150 569.5,-156 569.5,-156 569.5,-168 569.5,-168 569.5,-174 563.5,-180 557.5,-180"/>
<text text-anchor="middle" x="492.5" y="-165.4" font-family="sans-serif" font-size="12.00">Algebra</text>
<text text-anchor="middle" x="492.5" y="-152.4" font-family="sans-serif" font-size="12.00">StatementPresentation</text>
</g>
<!-- MagnitudeConjecture.Algebra.StatementTheorem&#45;&gt;MagnitudeConjecture.Algebra.StatementPresentation -->
<g id="edge3" class="edge">
<title>MagnitudeConjecture.Algebra.StatementTheorem&#45;&gt;MagnitudeConjecture.Algebra.StatementPresentation</title>
<path fill="none" stroke="#53656d" d="M426.25,-215.7C437.34,-206.88 450.97,-196.03 462.99,-186.47"/>
<polygon fill="#53656d" stroke="#53656d" points="465.35,-189.07 471,-180.1 460.99,-183.59 465.35,-189.07"/>
</g>
<!-- MagnitudeConjecture.Algebra.StatementFiniteModules&#45;&gt;MagnitudeConjecture.Statement -->
<g id="edge4" class="edge">
<title>MagnitudeConjecture.Algebra.StatementFiniteModules&#45;&gt;MagnitudeConjecture.Statement</title>
<path fill="none" stroke="#53656d" d="M324.66,-143.7C328.41,-135.73 332.95,-126.1 337.12,-117.26"/>
<polygon fill="#53656d" stroke="#53656d" points="340.34,-118.64 341.44,-108.1 334.01,-115.66 340.34,-118.64"/>
</g>
<!-- MagnitudeConjecture.Algebra.RightModuleMagnitudePublic -->
<g id="node6" class="node">
<title>MagnitudeConjecture.Algebra.RightModuleMagnitudePublic</title>
<path fill="white" stroke="#007d78" d="M279.5,-108C279.5,-108 115.5,-108 115.5,-108 109.5,-108 103.5,-102 103.5,-96 103.5,-96 103.5,-84 103.5,-84 103.5,-78 109.5,-72 115.5,-72 115.5,-72 279.5,-72 279.5,-72 285.5,-72 291.5,-78 291.5,-84 291.5,-84 291.5,-96 291.5,-96 291.5,-102 285.5,-108 279.5,-108"/>
<text text-anchor="middle" x="197.5" y="-93.4" font-family="sans-serif" font-size="12.00">Algebra</text>
<text text-anchor="middle" x="197.5" y="-80.4" font-family="sans-serif" font-size="12.00">RightModuleMagnitudePublic</text>
</g>
<!-- MagnitudeConjecture.Algebra.StatementFiniteModules&#45;&gt;MagnitudeConjecture.Algebra.RightModuleMagnitudePublic -->
<g id="edge5" class="edge">
<title>MagnitudeConjecture.Algebra.StatementFiniteModules&#45;&gt;MagnitudeConjecture.Algebra.RightModuleMagnitudePublic</title>
<path fill="none" stroke="#53656d" d="M287.39,-143.88C271.83,-134.72 252.48,-123.34 235.72,-113.48"/>
<polygon fill="#53656d" stroke="#53656d" points="237.12,-110.24 226.72,-108.19 233.57,-116.28 237.12,-110.24"/>
</g>
<!-- MagnitudeConjecture.Algebra.StatementPresentation&#45;&gt;MagnitudeConjecture.Statement -->
<g id="edge6" class="edge">
<title>MagnitudeConjecture.Algebra.StatementPresentation&#45;&gt;MagnitudeConjecture.Statement</title>
<path fill="none" stroke="#53656d" d="M457.52,-143.88C438.3,-134.47 414.27,-122.71 393.76,-112.67"/>
<polygon fill="#53656d" stroke="#53656d" points="395.14,-109.44 384.62,-108.19 392.06,-115.73 395.14,-109.44"/>
</g>
<!-- MagnitudeConjecture.Algebra.BoundQuiverPresentation -->
<g id="node9" class="node">
<title>MagnitudeConjecture.Algebra.BoundQuiverPresentation</title>
<path fill="white" stroke="#007d78" d="M565,-108C565,-108 420,-108 420,-108 414,-108 408,-102 408,-96 408,-96 408,-84 408,-84 408,-78 414,-72 420,-72 420,-72 565,-72 565,-72 571,-72 577,-78 577,-84 577,-84 577,-96 577,-96 577,-102 571,-108 565,-108"/>
<text text-anchor="middle" x="492.5" y="-93.4" font-family="sans-serif" font-size="12.00">Algebra</text>
<text text-anchor="middle" x="492.5" y="-80.4" font-family="sans-serif" font-size="12.00">BoundQuiverPresentation</text>
</g>
<!-- MagnitudeConjecture.Algebra.StatementPresentation&#45;&gt;MagnitudeConjecture.Algebra.BoundQuiverPresentation -->
<g id="edge7" class="edge">
<title>MagnitudeConjecture.Algebra.StatementPresentation&#45;&gt;MagnitudeConjecture.Algebra.BoundQuiverPresentation</title>
<path fill="none" stroke="#53656d" d="M492.5,-143.7C492.5,-135.98 492.5,-126.71 492.5,-118.11"/>
<polygon fill="#53656d" stroke="#53656d" points="496,-118.1 492.5,-108.1 489,-118.1 496,-118.1"/>
</g>
<!-- MagnitudeConjecture.CategoryTheory.FiniteCategoryAlgebraEquivalence -->
<g id="node10" class="node">
<title>MagnitudeConjecture.CategoryTheory.FiniteCategoryAlgebraEquivalence</title>
<path fill="white" stroke="#007d78" d="M804,-108C804,-108 607,-108 607,-108 601,-108 595,-102 595,-96 595,-96 595,-84 595,-84 595,-78 601,-72 607,-72 607,-72 804,-72 804,-72 810,-72 816,-78 816,-84 816,-84 816,-96 816,-96 816,-102 810,-108 804,-108"/>
<text text-anchor="middle" x="705.5" y="-93.4" font-family="sans-serif" font-size="12.00">CategoryTheory</text>
<text text-anchor="middle" x="705.5" y="-80.4" font-family="sans-serif" font-size="12.00">FiniteCategoryAlgebraEquivalence</text>
</g>
<!-- MagnitudeConjecture.Algebra.StatementPresentation&#45;&gt;MagnitudeConjecture.CategoryTheory.FiniteCategoryAlgebraEquivalence -->
<g id="edge8" class="edge">
<title>MagnitudeConjecture.Algebra.StatementPresentation&#45;&gt;MagnitudeConjecture.CategoryTheory.FiniteCategoryAlgebraEquivalence</title>
<path fill="none" stroke="#53656d" d="M544.33,-143.97C574.35,-134.1 612.32,-121.62 643.87,-111.25"/>
<polygon fill="#53656d" stroke="#53656d" points="645.03,-114.56 653.43,-108.11 642.84,-107.91 645.03,-114.56"/>
</g>
<!-- MagnitudeConjecture.Algebra.RightModuleSimpleCount -->
<g id="node7" class="node">
<title>MagnitudeConjecture.Algebra.RightModuleSimpleCount</title>
<path fill="white" stroke="#007d78" d="M155,-36C155,-36 12,-36 12,-36 6,-36 0,-30 0,-24 0,-24 0,-12 0,-12 0,-6 6,0 12,0 12,0 155,0 155,0 161,0 167,-6 167,-12 167,-12 167,-24 167,-24 167,-30 161,-36 155,-36"/>
<text text-anchor="middle" x="83.5" y="-21.4" font-family="sans-serif" font-size="12.00">Algebra</text>
<text text-anchor="middle" x="83.5" y="-8.4" font-family="sans-serif" font-size="12.00">RightModuleSimpleCount</text>
</g>
<!-- MagnitudeConjecture.Algebra.RightModuleMagnitudePublic&#45;&gt;MagnitudeConjecture.Algebra.RightModuleSimpleCount -->
<g id="edge10" class="edge">
<title>MagnitudeConjecture.Algebra.RightModuleMagnitudePublic&#45;&gt;MagnitudeConjecture.Algebra.RightModuleSimpleCount</title>
<path fill="none" stroke="#53656d" d="M169.61,-71.88C154.71,-62.72 136.17,-51.34 120.12,-41.48"/>
<polygon fill="#53656d" stroke="#53656d" points="121.85,-38.44 111.49,-36.19 118.19,-44.41 121.85,-38.44"/>
</g>
<!-- MagnitudeConjecture.Algebra.RightModuleMagnitudeCharacterization -->
<g id="node8" class="node">
<title>MagnitudeConjecture.Algebra.RightModuleMagnitudeCharacterization</title>
<path fill="white" stroke="#007d78" d="M426,-36C426,-36 197,-36 197,-36 191,-36 185,-30 185,-24 185,-24 185,-12 185,-12 185,-6 191,0 197,0 197,0 426,0 426,0 432,0 438,-6 438,-12 438,-12 438,-24 438,-24 438,-30 432,-36 426,-36"/>
<text text-anchor="middle" x="311.5" y="-21.4" font-family="sans-serif" font-size="12.00">Algebra</text>
<text text-anchor="middle" x="311.5" y="-8.4" font-family="sans-serif" font-size="12.00">RightModuleMagnitudeCharacterization</text>
</g>
<!-- MagnitudeConjecture.Algebra.RightModuleMagnitudePublic&#45;&gt;MagnitudeConjecture.Algebra.RightModuleMagnitudeCharacterization -->
<g id="edge9" class="edge">
<title>MagnitudeConjecture.Algebra.RightModuleMagnitudePublic&#45;&gt;MagnitudeConjecture.Algebra.RightModuleMagnitudeCharacterization</title>
<path fill="none" stroke="#53656d" d="M225.39,-71.88C240.29,-62.72 258.83,-51.34 274.88,-41.48"/>
<polygon fill="#53656d" stroke="#53656d" points="276.81,-44.41 283.51,-36.19 273.15,-38.44 276.81,-44.41"/>
</g>
</g>
</svg>
